<svg width="30" height="30" viewBox="0 0 30 30" fill="none" xmlns="http://www.w3.org/2000/svg">
<g clip-path="url(#clip0)">
<path d="M7.02129 14.3617C6.66896 14.3617 6.38297 14.6476 6.38297 15C6.38297 16.4077 5.23752 17.5531 3.8298 17.5531C2.42209 17.5531 1.27658 16.4077 1.27658 15C1.27658 13.5922 2.42203 12.4468 3.82975 12.4468C4.18207 12.4468 4.46807 12.1609 4.46807 11.8085C4.46807 11.4562 4.18213 11.1702 3.82975 11.1702C1.71797 11.1702 0 12.8881 0 15C0 17.1118 1.71797 18.8298 3.8298 18.8298C5.94164 18.8298 7.65961 17.1118 7.65961 15C7.65955 14.6476 7.37361 14.3617 7.02129 14.3617Z" fill="black"/>
<path d="M15 11.1702C12.8882 11.1702 11.1702 12.8881 11.1702 15C11.1702 17.1118 12.8882 18.8298 15 18.8298C15.3524 18.8298 15.6384 18.5438 15.6384 18.1915C15.6384 17.8391 15.3524 17.5531 15 17.5531C13.5923 17.5531 12.4469 16.4077 12.4469 15C12.4469 13.5923 13.5923 12.4468 15 12.4468C16.4077 12.4468 17.5532 13.5923 17.5532 15C17.5532 15.3523 17.8391 15.6383 18.1915 15.6383C18.5438 15.6383 18.8298 15.3524 18.8298 15C18.8298 12.8881 17.1119 11.1702 15 11.1702Z" fill="black"/>
<path d="M26.1702 11.1702C25.8179 11.1702 25.5319 11.4561 25.5319 11.8085C25.5319 12.1608 25.8178 12.4468 26.1702 12.4468C27.578 12.4468 28.7234 13.5923 28.7234 15C28.7234 16.4077 27.5779 17.5531 26.1702 17.5531C24.7625 17.5531 23.617 16.4077 23.617 15C23.617 14.6476 23.3311 14.3617 22.9787 14.3617C22.6263 14.3617 22.3404 14.6476 22.3404 15C22.3404 17.1118 24.0584 18.8298 26.1702 18.8298C28.282 18.8298 30 17.1118 30 15C30 12.8881 28.282 11.1702 26.1702 11.1702Z" fill="black"/>
</g>
<defs>
<clipPath id="clip0">
<rect width="30" height="30" fill="white"/>
</clipPath>
</defs>
</svg>
