<svg width="25" height="25" viewBox="0 0 25 25" fill="none" xmlns="http://www.w3.org/2000/svg">
<path d="M7.65814 14.6761H22.3928L25 5.36996H21.1632L19.7857 1.11485L14.0408 2.9771L14.8265 5.36996H14.5561L13.1377 1.11485L7.39284 2.9771L8.17854 5.36996H5.10712L4.46938 2.81893C4.14794 1.54342 3.0357 0.640381 1.75508 0.640381H0V1.70669H1.75508C2.55099 1.70669 3.24486 2.23729 3.45917 3.03834L6.2806 14.0791C5.69896 14.4975 5.31632 15.1812 5.31632 15.9618C5.31632 17.2373 6.38263 18.3036 7.65814 18.3036H22.0204V17.2373H7.65814C6.96427 17.2373 6.38263 16.6506 6.38263 15.9618C6.38267 15.2628 6.96937 14.6761 7.65814 14.6761ZM19.0969 2.44139L20.0561 5.31386H15.9082L15.3214 3.66591L19.0969 2.44139ZM12.449 2.44139L13.4081 5.31386H9.2602L8.67346 3.66591L12.449 2.44139ZM23.6173 6.38017L21.5969 13.6149H7.23467L5.37242 6.38021L23.6173 6.38017Z" fill="black"/>
<path d="M17.3419 19.8904C16.1174 19.8904 15.1072 20.9006 15.1072 22.1251C15.1072 23.3495 16.1174 24.3598 17.3419 24.3598C18.6174 24.3598 19.5766 23.3495 19.5766 22.1251C19.5766 20.9006 18.5664 19.8904 17.3419 19.8904ZM17.3419 23.3495C16.648 23.3495 16.1174 22.7628 16.1174 22.1251C16.1174 21.4312 16.7041 20.9006 17.3419 20.9006C18.0357 20.9006 18.5663 21.4312 18.5663 22.1251C18.5664 22.8189 17.9796 23.3495 17.3419 23.3495Z" fill="black"/>
<path d="M9.14802 19.8904C7.92354 19.8904 6.91333 20.9006 6.91333 22.1251C6.91333 23.3495 7.92354 24.3598 9.14802 24.3598C10.3725 24.3598 11.3827 23.3495 11.3827 22.1251C11.3827 20.9006 10.3725 19.8904 9.14802 19.8904ZM9.14802 23.3495C8.45414 23.3495 7.92354 22.7628 7.92354 22.1251C7.92354 21.4312 8.51028 20.9006 9.14802 20.9006C9.78576 20.9006 10.3725 21.4312 10.3725 22.1251C10.3725 22.8189 9.78576 23.3495 9.14802 23.3495Z" fill="black"/>
</svg>
