<svg width="15" height="15" viewBox="0 0 15 15" fill="none" xmlns="http://www.w3.org/2000/svg">
<path d="M13.888 5.09219C13.765 5.13235 13.6978 5.26469 13.7379 5.38773C13.9598 6.06739 14.0723 6.77808 14.0723 7.50004C14.0723 9.31686 13.3648 11.0249 12.0801 12.3096C10.7954 13.5943 9.0873 14.3018 7.27049 14.3018C5.45367 14.3018 3.74561 13.5943 2.46091 12.3096C1.17621 11.0249 0.46875 9.31683 0.46875 7.50001C0.46875 5.68319 1.17624 3.97513 2.46094 2.69043C3.74563 1.40573 5.4537 0.698242 7.27052 0.698242C8.23406 0.698242 9.16509 0.895527 10.0378 1.28468C10.8809 1.66067 11.6282 2.19605 12.2587 2.87594C12.3468 2.97083 12.4951 2.97646 12.59 2.88839C12.6849 2.80038 12.6905 2.65211 12.6025 2.55716C11.9286 1.83063 11.13 1.25849 10.2287 0.856563C9.29552 0.440488 8.30027 0.229492 7.27052 0.229492C5.32849 0.229492 3.5027 0.985732 2.1295 2.35899C0.756269 3.7322 0 5.55798 0 7.50001C0 9.44201 0.756269 11.2678 2.1295 12.641C3.5027 14.0142 5.32849 14.7705 7.27052 14.7705C9.21255 14.7705 11.0383 14.0143 12.4115 12.641C13.7848 11.2678 14.541 9.44201 14.541 7.50001C14.541 6.72857 14.4208 5.96896 14.1836 5.24228C14.1434 5.11923 14.0111 5.05211 13.888 5.09219Z" fill="black"/>
<path d="M14.794 2.43956C14.6612 2.30661 14.4846 2.2334 14.2966 2.2334C14.1086 2.2334 13.9319 2.30661 13.7992 2.43947L13.5894 2.64927C13.4978 2.74079 13.4978 2.88918 13.5894 2.9807C13.6809 3.0722 13.8293 3.07223 13.9208 2.98067L14.1307 2.77079C14.1749 2.72649 14.2338 2.70212 14.2965 2.70212C14.3592 2.70212 14.4181 2.72649 14.4625 2.77091C14.5068 2.81526 14.5313 2.87415 14.5313 2.93682C14.5313 2.99948 14.5068 3.05837 14.4625 3.10272L6.38092 11.1843C6.33668 11.2286 6.27779 11.253 6.2151 11.253C6.1524 11.253 6.09352 11.2286 6.04916 11.1842L2.89298 8.02803C2.84862 7.98367 2.82419 7.92478 2.82419 7.86212C2.82419 7.79948 2.84862 7.74056 2.89307 7.69609C2.9373 7.6518 2.99619 7.62742 3.05889 7.62742C3.12158 7.62742 3.18047 7.6518 3.22482 7.69621L6.04937 10.5208C6.09331 10.5647 6.15293 10.5894 6.2151 10.5894C6.27727 10.5894 6.33689 10.5647 6.38083 10.5208L13.2612 3.64041C13.3527 3.54886 13.3527 3.4005 13.2612 3.30894C13.1697 3.21745 13.0213 3.21745 12.9297 3.30894L6.2151 10.0236L3.55641 7.36483C3.4236 7.23188 3.24694 7.15867 3.05895 7.15867C2.87095 7.15867 2.69426 7.23188 2.56154 7.36474C2.42865 7.49764 2.35547 7.67427 2.35547 7.86212C2.35547 8.04997 2.42865 8.2266 2.56154 8.35952L5.71764 11.5156C5.85041 11.6486 6.0271 11.7218 6.2151 11.7218C6.4031 11.7218 6.57979 11.6486 6.71247 11.5157L14.7939 3.43425C14.9268 3.30136 15 3.12473 15 2.93685C15 2.74896 14.9268 2.57233 14.794 2.43956Z" fill="black"/>
</svg>
