<svg width="22" height="22" viewBox="0 0 22 22" fill="none" xmlns="http://www.w3.org/2000/svg">
<path d="M20.458 21.06C20.3048 21.06 20.1502 21.001 20.0329 20.8837L0.176466 1.02743C-0.0588221 0.79282 -0.0588221 0.411751 0.176466 0.176465C0.411755 -0.0588216 0.792149 -0.0588216 1.02744 0.176465L20.8839 20.0327C21.1192 20.268 21.1192 20.6484 20.8839 20.8837C20.7659 21.001 20.6126 21.06 20.458 21.06Z" fill="black"/>
<path d="M0.602291 21.06C0.447692 21.06 0.294449 21.001 0.176466 20.8837C-0.0588221 20.6484 -0.0588221 20.268 0.176466 20.0327L20.0329 0.176465C20.2682 -0.0588216 20.6486 -0.0588216 20.8839 0.176465C21.1192 0.411751 21.1192 0.79282 20.8839 1.02743L1.02744 20.8837C0.910132 21.001 0.756211 21.06 0.602291 21.06Z" fill="black"/>
</svg>
