<svg width="45" height="41" viewBox="0 0 45 41" fill="none" xmlns="http://www.w3.org/2000/svg">
<path d="M22.5 40.4965C21.8593 40.4965 21.2417 40.2644 20.7603 39.8428C18.9425 38.2532 17.1898 36.7594 15.6435 35.4417L15.6356 35.4349C11.102 31.5715 7.1871 28.2351 4.46319 24.9484C1.41826 21.2742 0 17.7905 0 13.9848C0 10.2872 1.26789 6.87592 3.56986 4.37894C5.8993 1.85242 9.09563 0.460938 12.5711 0.460938C15.1687 0.460938 17.5475 1.28217 19.6415 2.90162C20.6982 3.71907 21.6561 4.71951 22.5 5.88647C23.3442 4.71951 24.3017 3.71907 25.3588 2.90162C27.4527 1.28217 29.8316 0.460938 32.4292 0.460938C35.9043 0.460938 39.101 1.85242 41.4304 4.37894C43.7324 6.87592 44.9999 10.2872 44.9999 13.9848C44.9999 17.7905 43.582 21.2742 40.5371 24.9481C37.8132 28.2351 33.8986 31.5711 29.3657 35.4342C27.8166 36.7539 26.0612 38.2501 24.2392 39.8435C23.7582 40.2644 23.1403 40.4965 22.5 40.4965ZM12.5711 3.09697C9.84064 3.09697 7.33233 4.18668 5.50757 6.16559C3.65569 8.17437 2.63568 10.9512 2.63568 13.9848C2.63568 17.1856 3.82529 20.0482 6.49256 23.2665C9.07057 26.3773 12.9051 29.6451 17.345 33.4288L17.3532 33.4357C18.9054 34.7585 20.6649 36.2582 22.4962 37.8594C24.3384 36.2551 26.1007 34.753 27.656 33.4282C32.0955 29.6444 35.9297 26.3773 38.5077 23.2665C41.1746 20.0482 42.3642 17.1856 42.3642 13.9848C42.3642 10.9512 41.3442 8.17437 39.4923 6.16559C37.6679 4.18668 35.1593 3.09697 32.4292 3.09697C30.429 3.09697 28.5926 3.7328 26.971 4.98662C25.526 6.10448 24.5194 7.51759 23.9292 8.50636C23.6257 9.01482 23.0915 9.31832 22.5 9.31832C21.9084 9.31832 21.3742 9.01482 21.0707 8.50636C20.4809 7.51759 19.4743 6.10448 18.0289 4.98662C16.4074 3.7328 14.5709 3.09697 12.5711 3.09697Z" fill="black"/>
</svg>
