<svg width="25" height="23" viewBox="0 0 25 23" fill="none" xmlns="http://www.w3.org/2000/svg">
<path d="M12.5 22.6092C12.1441 22.6092 11.8009 22.4802 11.5335 22.246C10.5236 21.3629 9.54988 20.533 8.69082 19.801L8.68643 19.7972C6.16778 17.6508 3.99284 15.7973 2.47955 13.9714C0.787924 11.9301 0 9.99472 0 7.88042C0 5.82621 0.704382 3.93107 1.98326 2.54385C3.27739 1.14024 5.05313 0.367188 6.98393 0.367188C8.42703 0.367188 9.74863 0.823425 10.9119 1.72312C11.499 2.17726 12.0311 2.73306 12.5 3.38137C12.969 2.73306 13.5009 2.17726 14.0882 1.72312C15.2515 0.823425 16.5731 0.367188 18.0162 0.367188C19.9468 0.367188 21.7227 1.14024 23.0169 2.54385C24.2958 3.93107 25 5.82621 25 7.88042C25 9.99472 24.2122 11.9301 22.5206 13.9712C21.0073 15.7973 18.8326 17.6506 16.3143 19.7968C15.4537 20.53 14.4785 21.3612 13.4662 22.2464C13.199 22.4802 12.8557 22.6092 12.5 22.6092ZM6.98393 1.83165C5.46702 1.83165 4.07352 2.43704 3.05976 3.53644C2.03094 4.65243 1.46427 6.19509 1.46427 7.88042C1.46427 9.65865 2.12516 11.249 3.60698 13.0369C5.03921 14.7652 7.16952 16.5806 9.6361 18.6827L9.64067 18.6865C10.503 19.4214 11.4805 20.2545 12.4979 21.1441C13.5214 20.2528 14.5004 19.4184 15.3644 18.6823C17.8308 16.5802 19.9609 14.7652 21.3932 13.0369C22.8748 11.249 23.5357 9.65865 23.5357 7.88042C23.5357 6.19509 22.969 4.65243 21.9402 3.53644C20.9266 2.43704 19.5329 1.83165 18.0162 1.83165C16.905 1.83165 15.8847 2.18489 14.9839 2.88145C14.1811 3.50249 13.6219 4.28755 13.294 4.83687C13.1254 5.11935 12.8286 5.28796 12.5 5.28796C12.1713 5.28796 11.8746 5.11935 11.7059 4.83687C11.3783 4.28755 10.819 3.50249 10.016 2.88145C9.1152 2.18489 8.09496 1.83165 6.98393 1.83165Z" fill="black"/>
</svg>
