<svg width="15" height="15" viewBox="0 0 15 15" fill="none" xmlns="http://www.w3.org/2000/svg">
<g clip-path="url(#clip0)">
<path d="M14.926 3.07251L11.9259 0.0723459C11.8281 -0.0254174 11.6702 -0.0254174 11.5724 0.0723459L0.07259 11.5721C-0.0251732 11.6699 -0.0251732 11.8279 0.07259 11.9257L3.07272 14.9258C3.11948 14.9728 3.18323 14.999 3.24947 14.999C3.31571 14.999 3.37923 14.9728 3.42622 14.9258L14.926 3.42603C14.973 3.37928 14.9992 3.31553 14.9992 3.24929C14.9993 3.18302 14.973 3.1195 14.926 3.07251ZM3.2495 14.3955L0.602891 11.7489L11.7491 0.602647L14.3957 3.24926L3.2495 14.3955Z" fill="black"/>
<path d="M12.0008 2.25C11.5872 2.25 11.2507 2.5865 11.2507 3.00003C11.2507 3.41355 11.5872 3.75005 12.0008 3.75005C12.4143 3.75005 12.7508 3.41355 12.7508 3.00003C12.7508 2.58653 12.4143 2.25 12.0008 2.25ZM12.0008 3.25004C11.8627 3.25004 11.7507 3.13778 11.7507 3.00003C11.7507 2.86227 11.8627 2.75001 12.0008 2.75001C12.1388 2.75001 12.2508 2.86227 12.2508 3.00003C12.2508 3.13781 12.1388 3.25004 12.0008 3.25004Z" fill="black"/>
<path d="M9.67729 2.3232L9.32373 2.67676L10.0738 3.42683L10.4274 3.07328L9.67729 2.3232Z" fill="black"/>
<path d="M8.92729 3.0732L8.57373 3.42676L9.57378 4.42681L9.92734 4.07325L8.92729 3.0732Z" fill="black"/>
<path d="M8.17729 3.8232L7.82373 4.17676L8.57381 4.92683L8.92736 4.57328L8.17729 3.8232Z" fill="black"/>
<path d="M7.42704 4.5732L7.07349 4.92676L8.07354 5.92681L8.4271 5.57325L7.42704 4.5732Z" fill="black"/>
<path d="M6.67729 5.32223L6.32373 5.67578L7.07381 6.42586L7.42736 6.0723L6.67729 5.32223Z" fill="black"/>
<path d="M5.92704 6.07223L5.57349 6.42578L6.57354 7.42583L6.9271 7.07228L5.92704 6.07223Z" fill="black"/>
<path d="M5.17699 6.82218L4.82349 7.17578L5.5735 7.92558L5.92701 7.57198L5.17699 6.82218Z" fill="black"/>
<path d="M4.42704 7.5732L4.07349 7.92676L5.07354 8.92681L5.42709 8.57326L4.42704 7.5732Z" fill="black"/>
<path d="M3.67704 8.3232L3.32349 8.67676L4.07356 9.42683L4.42712 9.07328L3.67704 8.3232Z" fill="black"/>
<path d="M2.92704 9.0732L2.57349 9.42676L3.57354 10.4268L3.92709 10.0733L2.92704 9.0732Z" fill="black"/>
<path d="M2.17753 9.8232L1.82397 10.1768L2.57405 10.9268L2.92761 10.5733L2.17753 9.8232Z" fill="black"/>
<path d="M1.4268 10.5732L1.07324 10.9268L2.0733 11.9268L2.42685 11.5733L1.4268 10.5732Z" fill="black"/>
</g>
<defs>
<clipPath id="clip0">
<rect width="15" height="15" fill="white"/>
</clipPath>
</defs>
</svg>
