<svg width="18" height="20" viewBox="0 0 18 20" fill="none" xmlns="http://www.w3.org/2000/svg">
<path d="M2.20382 5.95419V17.4942C2.20382 18.1762 2.45393 18.8168 2.89084 19.2764C3.32574 19.7373 3.93098 19.9989 4.56439 20H13.4263C14.0599 19.9989 14.6652 19.7373 15.0999 19.2764C15.5368 18.8168 15.7869 18.1762 15.7869 17.4942V5.95419C16.6554 5.72366 17.2182 4.8846 17.102 3.99339C16.9857 3.10236 16.2266 2.43583 15.3279 2.43565H12.9298V1.85017C12.9325 1.35782 12.7379 0.885049 12.3893 0.537238C12.0408 0.18961 11.5673 -0.00396362 11.0749 6.15416e-05H6.91582C6.42347 -0.00396362 5.94996 0.18961 5.60142 0.537238C5.25288 0.885049 5.05821 1.35782 5.06095 1.85017V2.43565H2.66287C1.76416 2.43583 1.00505 3.10236 0.888688 3.99339C0.772507 4.8846 1.3353 5.72366 2.20382 5.95419ZM13.4263 19.0632H4.56439C3.76357 19.0632 3.14058 18.3753 3.14058 17.4942V5.99536H14.8501V17.4942C14.8501 18.3753 14.2272 19.0632 13.4263 19.0632ZM5.99772 1.85017C5.99461 1.60628 6.09048 1.37154 6.26356 1.19938C6.43646 1.02721 6.67175 0.932619 6.91582 0.936827H11.0749C11.319 0.932619 11.5543 1.02721 11.7272 1.19938C11.9003 1.37136 11.9961 1.60628 11.993 1.85017V2.43565H5.99772V1.85017ZM2.66287 3.37242H15.3279C15.7935 3.37242 16.1709 3.74987 16.1709 4.21551C16.1709 4.68114 15.7935 5.05859 15.3279 5.05859H2.66287C2.19723 5.05859 1.81978 4.68114 1.81978 4.21551C1.81978 3.74987 2.19723 3.37242 2.66287 3.37242Z" fill="red"/>
</svg>
