<svg width="30" height="26" viewBox="0 0 30 26" fill="none" xmlns="http://www.w3.org/2000/svg">
<path d="M30.0004 3.6991C28.8962 4.18837 27.7114 4.52018 26.4666 4.66832C27.7377 3.90719 28.7106 2.69994 29.1717 1.26582C27.9795 1.97067 26.6634 2.48249 25.2612 2.75994C24.1383 1.56205 22.5411 0.815918 20.7695 0.815918C17.3708 0.815918 14.6151 3.57165 14.6151 6.96851C14.6151 7.45028 14.6694 7.92082 14.7744 8.37077C9.66039 8.11391 5.12564 5.66376 2.09059 1.94067C1.56005 2.84803 1.25824 3.90528 1.25824 5.03386C1.25824 7.1691 2.34554 9.05312 3.99525 10.1554C2.98667 10.1217 2.03809 9.8442 1.20765 9.38302V9.45989C1.20765 12.4406 3.32976 14.9282 6.14358 15.4944C5.62804 15.6331 5.08441 15.71 4.52201 15.71C4.12461 15.71 3.7403 15.6706 3.36348 15.5956C4.14706 18.042 6.41917 19.8211 9.11118 19.8698C7.00593 21.5195 4.35142 22.5 1.46824 22.5C0.971472 22.5 0.482158 22.47 0.000392914 22.4156C2.72427 24.1647 5.95804 25.1845 9.43363 25.1845C20.7546 25.1845 26.9429 15.8075 26.9429 7.67528L26.9222 6.87856C28.1313 6.01616 29.1774 4.93263 30.0004 3.6991Z" fill="#9e9e9e"/>
</svg>
